# xmcd
#
# Track frame offsets:
#	150
#	29543
#	52506
#	72977
#	89954
#	109437
#	130372
#	201433
#	219570
#	238365
#
# Disc length: 4253 seconds
#
# Revision: 1
# Processed by: cddbd v1.5.2PL0 Copyright (c) Steve Scherf et al.
# Submitted via: audiograbber 1.83.01
#
DISCID=a1109b0a
DTITLE=Portion Control - Crop (C)
DYEAR=2009
DGENRE=Industrial
TTITLE0=Hardman
TTITLE1=Global
TTITLE2=Pure Menace
TTITLE3=Blood Rushed To Head
TTITLE4=Blind Eyes
TTITLE5=Too Much Damage
TTITLE6=Onion Jack II Segue
TTITLE7=Chew You To Bits Rebuild
TTITLE8=Sickman
TTITLE9=Onion Jack IV Segue: Pearly King and Queen Cosh Boy.Onion Freak.Drive By.
TTITLE9=Sunbeam
EXTD=
EXTT0=
EXTT1=
EXTT2=
EXTT3=
EXTT4=
EXTT5=
EXTT6=
EXTT7=
EXTT8=
EXTT9=
PLAYORDER=
